<?xml version="1.0" encoding="utf-8"?>
<!-- Generator: Adobe Illustrator 19.1.0, SVG Export Plug-In . SVG Version: 6.00 Build 0)  -->
<svg version="1.1" id="Слой_1" xmlns="http://www.w3.org/2000/svg" xmlns:xlink="http://www.w3.org/1999/xlink" x="0px" y="0px"
	 viewBox="0 0 232 60" style="enable-background:new 0 0 232 60;" xml:space="preserve">
<style type="text/css">
	.st0{fill:#FFFFFF;}
	.st1{fill:#DCA647;}
</style>
<g>
	<g>
		<path class="st0" d="M181.5,8.8c-0.3-0.2-0.6-0.4-1-0.4c-0.4,0-0.7,0.1-0.9,0.3c-0.2,0.2-0.4,0.4-0.5,0.7l-2.1,7.1
			c0,0.1-0.2,0.3-0.3,0.3c-0.1,0-0.3-0.1-0.4-0.2l-2.1-7.1c-0.1-0.3-0.3-0.5-0.5-0.7c-0.3-0.2-0.6-0.3-0.9-0.3c-0.4,0-0.7,0.1-1,0.4
			c-0.2,0.2-0.4,0.4-0.4,0.7l-1.7,10c0,0.1,0,0.2,0,0.2c0,0.3,0.1,0.5,0.3,0.7c0.2,0.2,0.4,0.3,0.7,0.3c0.6,0,0.9-0.3,1-0.9l1.1-7.3
			c0-0.2,0.2-0.3,0.4-0.3c0.2,0,0.3,0.1,0.4,0.3l2.1,7.5c0.2,0.5,0.5,0.8,1.1,0.8c0.6,0,0.9-0.2,1.1-0.8l2.1-7.5
			c0-0.2,0.2-0.3,0.3-0.3c0.2,0,0.4,0.1,0.4,0.3l1.1,7.3c0.1,0.7,0.4,0.9,1,0.9c0.3,0,0.5-0.1,0.7-0.3c0.2-0.2,0.3-0.4,0.3-0.7
			c0-0.1,0-0.2,0-0.2l-1.7-10C181.9,9.2,181.7,9,181.5,8.8z"/>
		<path class="st0" d="M189.3,11.5c-1.2,0-2.2,0.5-3.1,1.4c-0.8,0.9-1.2,2-1.2,3.2c0,1.3,0.4,2.4,1.2,3.2c0.8,0.9,1.8,1.3,3.1,1.3
			c1.2,0,2.3-0.5,3.1-1.3c0.8-0.9,1.2-2,1.2-3.2c0-1.2-0.4-2.3-1.2-3.2C191.6,12,190.5,11.5,189.3,11.5z M191.2,18.1
			c-0.4,0.7-1,1-1.8,1s-1.4-0.3-1.8-1c-0.4-0.5-0.6-1.2-0.6-1.9c0-0.8,0.2-1.4,0.5-2c0.5-0.7,1.1-1,1.9-1s1.4,0.3,1.8,1
			c0.4,0.5,0.5,1.2,0.5,2C191.7,16.9,191.5,17.5,191.2,18.1z"/>
		<path class="st0" d="M201.1,11.8c-0.6-0.2-1.2-0.3-1.8-0.3c-1.2,0-2.2,0.5-3.1,1.4c-0.8,0.9-1.2,2-1.2,3.2c0,1.3,0.4,2.4,1.2,3.2
			c0.8,0.9,1.8,1.3,3.1,1.3c0.6,0,1.2-0.1,1.8-0.4c0.7-0.3,1-0.6,1-1c0-0.2-0.1-0.4-0.2-0.5c-0.2-0.2-0.3-0.2-0.5-0.2
			c0,0-0.1,0-0.7,0.2c-0.5,0.2-0.9,0.3-1.2,0.3c-0.8,0-1.4-0.3-1.9-1c-0.4-0.6-0.6-1.2-0.6-2c0-0.8,0.2-1.5,0.6-2
			c0.5-0.6,1.1-1,1.9-1c0.3,0,0.7,0.1,1.2,0.3c0.5,0.2,0.8,0.2,0.8,0.2c0.1,0,0.3,0,0.4-0.3c0.1-0.2,0.2-0.4,0.2-0.6
			C202,12.4,201.7,12.1,201.1,11.8z"/>
		<path class="st0" d="M205.2,11.9c-0.2-0.2-0.4-0.3-0.7-0.3c-0.3,0-0.5,0.1-0.7,0.3c-0.2,0.2-0.3,0.5-0.3,0.8v6.9
			c0,0.3,0.1,0.6,0.3,0.8c0.2,0.2,0.4,0.3,0.7,0.3c0.3,0,0.5-0.1,0.7-0.3c0.2-0.2,0.3-0.5,0.3-0.8v-2.7c0-0.2,0.2-0.4,0.4-0.4
			c0.1,0,0.2,0,0.3,0.1l3.1,3.3c0.6,0.6,0.9,0.7,1,0.7c0.2,0,0.4-0.1,0.6-0.2c0.2-0.2,0.3-0.4,0.3-0.6c0-0.3-0.1-0.5-0.2-0.6l-3.1-3
			c-0.1-0.1-0.1-0.2-0.1-0.3c0-0.1,0-0.2,0.1-0.2l2.4-2.5c0.3-0.3,0.4-0.5,0.4-0.8c0-0.2-0.1-0.4-0.2-0.6c-0.1-0.2-0.3-0.2-0.5-0.2
			c-0.3,0-0.6,0.1-0.9,0.4l-2.8,3.2c-0.1,0.1-0.2,0.1-0.4,0.1c-0.2-0.1-0.2-0.2-0.2-0.3v-2.4C205.5,12.4,205.4,12.1,205.2,11.9z"/>
		<path class="st0" d="M216.9,11.7h-3.4c-0.2,0-0.4,0.1-0.6,0.2c-0.2,0.2-0.3,0.4-0.3,0.6v7.1c0,0.2,0.1,0.4,0.3,0.6
			c0.2,0.2,0.4,0.3,0.6,0.3h3.6c0.8,0,1.5-0.2,2-0.7c0.5-0.4,0.7-1.1,0.7-1.9c0-0.5-0.2-0.9-0.5-1.3c-0.3-0.4-0.7-0.6-1.2-0.6
			c-0.2,0-0.3-0.2-0.3-0.4c0-0.1,0.1-0.3,0.2-0.4c0.7-0.3,1-0.8,1-1.6c0-0.6-0.2-1.1-0.6-1.4C218,11.9,217.5,11.7,216.9,11.7z
			 M214.4,13.1c0-0.2,0.2-0.4,0.4-0.4h1c0.9,0,1.4,0.5,1.4,1.3c0,0.9-0.5,1.4-1.4,1.4h-1c-0.2,0-0.4-0.2-0.4-0.4V13.1z M217.9,17.9
			c0,1-0.6,1.5-1.6,1.5h-1.6c-0.2,0-0.4-0.2-0.4-0.4v-2.2c0-0.2,0.2-0.4,0.4-0.4h1.4C217.7,16.5,217.9,17.4,217.9,17.9z"/>
		<path class="st0" d="M222.4,20c0.6,0.5,1.3,0.7,2.3,0.7c1,0,1.7-0.3,2.1-0.9c0.1-0.1,0.2-0.2,0.4-0.2c0.1,0,0.2,0.1,0.3,0.3
			c0.1,0.5,0.4,0.7,0.9,0.7c0.3,0,0.5-0.1,0.6-0.3c0.2-0.2,0.2-0.4,0.2-0.7V14c0-1.7-1.1-2.5-3.3-2.5c-0.7,0-1.5,0.2-2.2,0.5
			c-0.5,0.2-1,0.6-1,1c0,0.5,0.2,0.7,0.8,0.7c0,0,0.2,0,0.7-0.4c0.5-0.3,1.1-0.5,1.7-0.5c1.3,0,1.5,0.6,1.5,1v0.7
			c0,0.2-0.2,0.4-0.4,0.4c-3.7,0-5.5,1-5.5,3C221.6,18.9,221.8,19.6,222.4,20z M224.7,16.4c0.4-0.1,1.1-0.1,2.4-0.1
			c0.2,0,0.4,0.2,0.4,0.4V17c0,1.5-0.8,2.3-2.3,2.3c-1.7,0-1.9-0.8-1.9-1.3C223.3,17.5,223.5,16.7,224.7,16.4z"/>
		<g>
			<path class="st1" d="M181.4,44.2c1.6,0,2.4,0.7,2.4,2c0,1.4-0.7,2-2.2,2h-10.3c-1.6,0-2.4-0.7-2.4-2c0-0.5,0.2-1,0.7-1.6
				c5-5.9,7.5-9,7.7-9.2c0.7-1,1.1-2,1.1-2.9c0-0.6-0.2-1.2-0.6-1.7c-0.4-0.5-1-0.7-1.6-0.7c-1.2,0-2.1,0.8-2.6,2.5
				c-0.3,0.9-0.5,1.4-0.7,1.7c-0.3,0.5-0.9,0.8-1.5,0.8c-0.7,0-1.3-0.2-1.7-0.7c-0.4-0.4-0.6-0.9-0.6-1.6c0-1.9,0.7-3.6,2.2-5
				c1.4-1.4,3.1-2,5.1-2c2,0,3.6,0.6,4.8,1.7c1.3,1.2,2,2.8,2,4.7c0,1.8-0.9,3.9-2.7,6.3c-0.6,0.7-1.4,1.7-2.4,2.9
				c-1.2,1.3-1.9,2.2-2.3,2.7H181.4z"/>
			<path class="st1" d="M187.7,44.9c-1.2-2-1.8-4.6-1.8-7.6s0.6-5.5,1.8-7.6c1.4-2.5,3.6-3.8,6.4-3.8c2.8,0,5,1.3,6.4,3.8
				c1.2,2,1.8,4.6,1.8,7.6s-0.6,5.5-1.8,7.6c-1.4,2.5-3.6,3.8-6.4,3.8C191.3,48.7,189.1,47.4,187.7,44.9z M197.4,37.3
				c0-4.8-1.1-7.2-3.4-7.2c-2.2,0-3.4,2.4-3.4,7.2s1.1,7.2,3.4,7.2C196.3,44.5,197.4,42.1,197.4,37.3z"/>
			<path class="st1" d="M207.6,30.6h-1.8c-0.7,0-1.2-0.2-1.6-0.7c-0.3-0.4-0.5-0.9-0.5-1.4c0-0.6,0.2-1.1,0.6-1.5
				c0.4-0.4,0.9-0.6,1.5-0.6h4.4c0.6,0,1.2,0.2,1.5,0.6c0.3,0.4,0.5,0.9,0.5,1.6v17.5c0,0.8-0.2,1.4-0.6,1.8c-0.4,0.4-1,0.6-1.7,0.6
				s-1.2-0.2-1.7-0.6c-0.4-0.4-0.6-1-0.6-1.8V30.6z"/>
			<path class="st1" d="M217.5,46.4c-1.4-1.5-2.1-3.2-2.1-5.4c0-2.1,0.9-4.7,2.7-7.7c1.5-2.5,3.2-4.7,5.1-6.4c0.2-0.2,0.5-0.4,1-0.7
				c0.2-0.1,0.5-0.2,0.9-0.2c0.5,0,0.9,0.2,1.4,0.7c0.5,0.5,0.8,1,0.8,1.5c0,0.3-0.2,0.7-0.6,1.3c-0.3,0.3-1,1.2-2.2,2.5
				c-1,1.1-1.6,1.9-2,2.4l0.1,0.1c0.6-0.2,1.2-0.4,1.9-0.4c1.8,0,3.3,0.7,4.6,2.1c1.2,1.4,1.8,3,1.8,4.8c0,2.1-0.7,3.8-2.2,5.3
				c-1.5,1.5-3.4,2.3-5.6,2.3C220.9,48.7,219,47.9,217.5,46.4z M221.1,38.8c-0.5,0.6-0.8,1.4-0.8,2.3c0,0.9,0.3,1.7,0.8,2.3
				c0.6,0.6,1.3,1,2.2,1c0.9,0,1.6-0.3,2.1-0.9c0.5-0.6,0.8-1.4,0.8-2.3c0-0.9-0.2-1.6-0.7-2.2c-0.5-0.7-1.3-1-2.2-1
				C222.3,37.8,221.6,38.1,221.1,38.8z"/>
		</g>
	</g>
	<path class="st0" d="M53.6,22.3c-7.2,0-13.1,5.9-13.1,13.1c0,7.2,5.9,13.1,13.1,13.1c7.2,0,13.1-5.9,13.1-13.1
		C66.7,28.2,60.8,22.3,53.6,22.3z M53.6,42.6c-4,0-7.2-3.2-7.2-7.2c0-4,3.2-7.2,7.2-7.2c4,0,7.2,3.2,7.2,7.2
		C60.9,39.4,57.6,42.6,53.6,42.6z"/>
	<path class="st0" d="M142.9,22.3c-7.2,0-13.1,5.9-13.1,13.1c0,7.2,5.9,13.1,13.1,13.1c7.2,0,13.1-5.9,13.1-13.1
		C156,28.2,150.1,22.3,142.9,22.3z M142.9,42.6c-4,0-7.2-3.2-7.2-7.2c0-4,3.2-7.2,7.2-7.2c4,0,7.2,3.2,7.2,7.2
		C150.1,39.4,146.9,42.6,142.9,42.6z"/>
	<path class="st0" d="M113.4,22.3c-2.5,0-5,0.7-7.1,2.1l-0.4,0.3l-0.1-0.5c-0.6-1.3-1.5-1.9-3-1.9c-1,0-1.8,0.3-2.4,1
		c-0.6,0.7-0.9,1.6-0.9,2.8v28.7c0,1.1,0.3,2.1,0.9,2.8c0.6,0.7,1.4,1,2.4,1c1,0,1.8-0.3,2.4-1c0.6-0.7,0.9-1.6,0.9-2.8v-8.6
		l0.5,0.3c2.1,1.3,4.5,2,6.8,2c7.2,0,13.1-5.9,13.1-13.1C126.5,28.2,120.6,22.3,113.4,22.3z M113.4,42.6c-4,0-7.3-3.3-7.3-7.3
		c0-4,3.3-7.3,7.3-7.3c4,0,7.3,3.3,7.3,7.3C120.7,39.4,117.4,42.6,113.4,42.6z"/>
	<path class="st0" d="M36.2,54.4c0.1,0,0.3,0,0.4,0c1.6,0,3-1.2,3.2-2.8l0.8-6.3c0.2-1.4-0.7-2.8-2.1-3.3c-0.4-0.2-0.8-0.3-1.3-0.3
		h-2.5V15.5c0-1.2-0.3-2.1-1-2.8c-0.6-0.6-1.5-0.9-2.5-0.9H13.8c-1,0-1.9,0.3-2.5,0.9c-0.7,0.7-1,1.6-1,2.8v8.2
		c0,3.4-0.4,7.3-1.2,11.5c-0.7,3.5-1.3,5.6-1.9,6.5L7,41.8H4.3c-0.6,0-1.1,0.2-1.3,0.3c-1.4,0.5-2.2,1.9-2.1,3.3l0.8,6.3
		c0.2,1.6,1.6,2.8,3.2,2.8c0.1,0,0.3,0,0.4,0c0.9-0.1,1.6-0.5,2.1-1.2c0.5-0.7,0.8-1.5,0.7-2.4l-0.3-2.7h26l-0.3,2.7
		C33.2,52.6,34.5,54.2,36.2,54.4z M27.7,41.8H14.3l0.2-0.5c1.8-4.3,2.8-10.6,2.8-18.2v-5.2h10.4V41.8z"/>
	<path class="st0" d="M99.2,12.1c0.5-2.7,0-5.4-1.5-7.4c-1.6-2.1-4-3.3-6.6-3.3c-1.8,0-3.2,0.4-4.6,1.2l-0.2,0.1l-0.2-0.1
		c-1.4-0.8-2.9-1.2-4.6-1.2c-2.7,0-5.1,1.3-6.7,3.3c-1.5,2-2.1,4.6-1.5,7.4c0.8,4,3.9,7.9,8.3,10.5c3.5,2,7,4.4,8.2,8
		c0.6,1.9,0.3,4.9,0.1,6.2c-0.6,3.4-3.6,5.8-7,5.8c-4,0-7.2-3.2-7.2-7.2c0-1.9,0.5-3.1,1.8-4.4c0.6-0.6,1.1-0.8,1.3-0.8l0.1,0
		l0.1,0.1c0.4,0.2,0.9,0.3,1.4,0.3c1,0,1.8-0.5,2.4-1.2c0.5-0.6,0.6-1.4,0.5-2.2c-0.1-0.8-0.6-1.5-1.2-1.9c-0.9-0.6-2-1-3.1-1
		c-1.9,0-3.9,0.9-5.6,2.5c-2.5,2.3-3.6,5.1-3.6,8.6c0,7.2,5.9,13,13,13c6.3,0,11.7-4.5,12.8-10.6c0.2-0.9,0.9-5.4-0.3-9.1
		c-1.8-5.5-6.5-8.8-10.8-11.3c-3.4-2-5.1-4.7-5.4-6.5c-0.2-0.7-0.2-1.8,0.4-2.6c0.7-0.9,1.5-1,2.2-1c1,0,2,0.4,2.5,1.1
		c0.5,0.6,1.3,1,2.2,1.1c0.9-0.1,1.6-0.4,2.1-1.1C89,7.7,90,7.3,90.9,7.3c0.7,0,1.5,0.2,2.2,1c0.6,0.8,0.7,1.8,0.2,3
		c-0.3,0.8-0.5,1.2-1.3,2.1c-0.2,0.2-0.3,0.2-0.4,0.3c-0.6,0.3-1.1,0.8-1.3,1.5c-0.3,0.8-0.1,1.8,0.3,2.5c0.5,0.8,1.4,1.3,2.4,1.3
		l0.1,0c0.5,0,1.1-0.2,1.5-0.4c1.5-0.9,3.1-2.2,4.3-5.9C99.1,12.6,99.2,12.2,99.2,12.1z"/>
</g>
</svg>
